# xmcd
#
# Track frame offsets: 
#        150
#        108642
#        218571
#
# Disc length: 4076 seconds
#
# Revision: 0
# Processed by: cddbd v1.5.2PL0 Copyright (c) Steve Scherf et al.
# Submitted via: ExactAudioCopy v0.99pb4
#
DISCID=230fea03
DTITLE=Daniel Menche - Glass Forest
DYEAR=2008
DGENRE=Noise
TTITLE0=Glass Forest One
TTITLE1=Glass Forest Two
TTITLE2=Glass Forest Three
EXTD=
EXTT0=
EXTT1=
EXTT2=
PLAYORDER=
